{
    "asset": {
        "copyright": "2020 (c) Adobe Inc.",
        "generator": "Adobe Dimension - 5769982f30ff13dfba89076b81240843d8e6af81",
        "version": "2.0",
        "extensions": {
            "KHR_xmp": {
                "packet": 0
            }
        }
    },
    "accessors": [
        {
            "bufferView": 0,
            "componentType": 5126,
            "count": 24,
            "type": "VEC3",
            "max": [
                0.09999999403953552,
                0.19999998807907105,
                0.09999999403953552
            ],
            "min": [
                -0.09999999403953552,
                0.0,
                -0.09999999403953552
            ]
        },
        {
            "bufferView": 1,
            "componentType": 5126,
            "count": 24,
            "type": "VEC3"
        },
        {
            "bufferView": 2,
            "componentType": 5126,
            "count": 24,
            "type": "VEC2"
        },
        {
            "bufferView": 3,
            "componentType": 5125,
            "count": 36,
            "type": "SCALAR",
            "max": [
                23.0
            ],
            "min": [
                0.0
            ]
        }
    ],
    "bufferViews": [
        {
            "buffer": 0,
            "byteOffset": 0,
            "byteLength": 288,
            "target": 34962
        },
        {
            "buffer": 0,
            "byteOffset": 288,
            "byteLength": 288,
            "target": 34962
        },
        {
            "buffer": 0,
            "byteOffset": 576,
            "byteLength": 192,
            "target": 34962
        },
        {
            "buffer": 0,
            "byteOffset": 768,
            "byteLength": 144,
            "target": 34963
        }
    ],
    "buffers": [
        {
            "byteLength": 912,
            "uri": "test Shopping dv_binary.bin"
        }
    ],
    "cameras": [
        {
            "perspective": {
                "znear": 0.0003679140063468367,
                "yfov": 0.6870920062065125,
                "zfar": 20.235271453857423,
                "aspectRatio": 1.3333333730697632
            },
            "type": "perspective",
            "name": "render_camera"
        }
    ],
    "materials": [
        {
            "pbrMetallicRoughness": {
                "baseColorFactor": [
                    0.6307567954063416,
                    0.6307567954063416,
                    0.6307567954063416,
                    1.0
                ],
                "metallicFactor": 0.0,
                "roughnessFactor": 0.028999999165534974
            },
            "name": "Plastique",
            "doubleSided": true
        },
        {
            "pbrMetallicRoughness": {
                "baseColorFactor": [
                    0.6172063946723938,
                    0.6172063946723938,
                    0.6172063946723938,
                    1.0
                ],
                "roughnessFactor": 0.02199999988079071
            },
            "name": "Métal",
            "doubleSided": true
        }
    ],
    "meshes": [
        {
            "name": "Cube",
            "primitives": [
                {
                    "attributes": {
                        "POSITION": 0,
                        "NORMAL": 1,
                        "TEXCOORD_0": 2
                    },
                    "indices": 3,
                    "material": 0
                }
            ]
        },
        {
            "name": "Cube 2",
            "primitives": [
                {
                    "attributes": {
                        "TEXCOORD_0": 2,
                        "NORMAL": 1,
                        "POSITION": 0
                    },
                    "indices": 3,
                    "material": 0
                }
            ]
        },
        {
            "name": "Cube 3",
            "primitives": [
                {
                    "attributes": {
                        "POSITION": 0,
                        "NORMAL": 1,
                        "TEXCOORD_0": 2
                    },
                    "indices": 3,
                    "material": 1
                }
            ]
        }
    ],
    "nodes": [
        {
            "translation": [
                -14.710000038146973,
                8.482999801635743,
                27.75
            ],
            "rotation": [
                0.002840898698195815,
                -0.23236261308193208,
                0.0006891391240060329,
                0.9726248383522034
            ],
            "scale": [
                0.9999840259552002,
                1.0000170469284058,
                1.000001072883606
            ],
            "camera": 0,
            "name": "render_camera_n3d"
        },
        {
            "translation": [
                -0.06810999661684036,
                0.0,
                -0.01597999967634678
            ],
            "scale": [
                31.0,
                85.0,
                11.5
            ],
            "mesh": 0,
            "name": "Cube"
        },
        {
            "scale": [
                33.0,
                85.0,
                6.5
            ],
            "mesh": 1,
            "name": "Cube 2"
        },
        {
            "translation": [
                0.0,
                6.130999565124512,
                1.150999903678894
            ],
            "scale": [
                26.719999313354493,
                47.5,
                1.0
            ],
            "mesh": 2,
            "name": "Cube 3"
        }
    ],
    "scenes": [
        {
            "nodes": [
                0,
                1,
                2,
                3
            ],
            "name": "scene"
        }
    ],
    "scene": 0,
    "extensions": {
        "KHR_xmp": {
            "@context": {
                "dc": "http://purl.org/dc/elements/1.1/"
            },
            "packets": [
                {
                    "dc:date": "2018-10-22T12:17:08.000-04:00",
                    "dc:format": "model/gltf+json",
                    "dc:title": "AppCurrent",
                    "xmp:CreatorTool": "Adobe Dimension CC"
                }
            ]
        }
    },
    "extensionsUsed": [
        "KHR_xmp"
    ]
}